<svg viewBox="0 0 1839 594" fill="none" xmlns="http://www.w3.org/2000/svg">
<path d="M308.341 58.0771L308.874 58.1269L309.407 58.2051L309.933 58.2975L310.445 58.4184L310.95 58.5534L311.455 58.7098L311.945 58.8805L312.421 59.0724L312.898 59.2857L313.36 59.5132L313.808 59.762L314.256 60.0251L314.682 60.3023L315.102 60.5938L315.507 60.9066L315.898 61.2266L316.282 61.5678L316.651 61.9233L317 62.293L317.341 62.6698L317.668 63.0679L317.981 63.4731L318.272 63.8926L318.55 64.3191L318.813 64.7599L319.062 65.2149L319.289 65.677L319.495 66.1463L319.687 66.6297L319.865 67.1202L320.021 67.6179L320.156 68.1298L320.27 68.6416L320.37 69.1677L320.441 69.6938L320.498 70.2341L320.533 70.7745L320.54 71.3219V71.5991L320.533 71.8693L320.519 72.1395L320.498 72.4096L320.476 72.6798L320.441 72.9499L320.405 73.213L320.37 73.4831L320.32 73.7391L320.27 74.0021L320.213 74.2652L320.156 74.5211L320.092 74.777L320.021 75.0259L319.943 75.2747L319.865 75.5235L319.78 75.7723L319.687 76.0212L319.595 76.2629L319.495 76.4975L319.396 76.7392L319.282 76.9738L319.175 77.2084L319.054 77.4359L318.934 77.6634L318.813 77.8909L318.678 78.1113L318.55 78.3317L318.408 78.545L318.265 78.7583L318.123 78.9716L317.974 79.1777L317.817 79.3839L317.661 79.583L317.498 79.782L317.334 79.9811L317.163 80.173L316.993 80.3579L316.815 80.5427L316.637 80.7276L246.297 151.068H418.003L419.282 151.096L420.548 151.167L421.799 151.295L423.036 151.466L424.259 151.686L425.46 151.956L426.641 152.269L427.807 152.625L428.951 153.03L430.074 153.471L431.176 153.954L432.257 154.48L433.309 155.049L434.34 155.646L435.342 156.293L436.324 156.968L437.269 157.679L438.186 158.426L439.075 159.208L439.935 160.026L440.76 160.872L441.556 161.746L442.31 162.649L443.035 163.587L443.724 164.547L444.371 165.535L444.983 166.552L445.559 167.59L446.092 168.656L446.582 169.744L447.03 170.853L447.436 171.976L447.798 173.128L448.118 174.294L448.388 175.481L448.616 176.683L448.786 177.898L448.914 179.136L448.992 180.38L449.021 181.645V430.622L448.992 431.881L448.914 433.125L448.786 434.362L448.616 435.578L448.388 436.779L448.118 437.966L447.798 439.132L447.436 440.284L447.03 441.415L446.582 442.524L446.092 443.604L445.559 444.671L444.983 445.709L444.371 446.725L443.724 447.713L443.035 448.673L442.31 449.612L441.556 450.515L440.76 451.396L439.935 452.242L439.075 453.053L438.186 453.835L437.269 454.581L436.324 455.292L435.342 455.975L434.34 456.614L433.309 457.219L432.257 457.78L431.176 458.306L430.074 458.79L428.951 459.238L427.807 459.636L426.641 459.991L425.46 460.304L424.259 460.574L423.036 460.795L421.799 460.965L420.548 461.093L419.282 461.171L418.003 461.193H36.9972L35.7175 461.171L34.452 461.093L33.2008 460.965L31.9638 460.795L30.741 460.574L29.5395 460.304L28.3593 459.991L27.1934 459.636L26.0488 459.238L24.9255 458.79L23.8235 458.306L22.7429 457.78L21.6907 457.219L20.6599 456.614L19.6574 455.975L18.6763 455.292L17.7308 454.581L16.8137 453.835L15.925 453.053L15.0648 452.235L14.2401 451.389L13.4438 450.515L12.6903 449.612L11.9651 448.673L11.2755 447.713L10.6285 446.725L10.0171 445.709L9.44127 444.671L8.90807 443.604L8.41752 442.517L7.96963 441.407L7.56439 440.284L7.20182 439.132L6.88189 437.966L6.61174 436.779L6.38424 435.578L6.21361 434.355L6.08564 433.125L6.00744 431.874L5.979 430.615V181.645L6.00744 180.38L6.08564 179.136L6.21361 177.898L6.38424 176.683L6.61174 175.481L6.88189 174.294L7.20182 173.128L7.56439 171.976L7.96963 170.853L8.41752 169.744L8.90807 168.656L9.44127 167.59L10.0171 166.552L10.6285 165.535L11.2755 164.547L11.9651 163.587L12.6903 162.649L13.4438 161.746L14.2401 160.872L15.0648 160.026L15.925 159.208L16.8137 158.426L17.7308 157.679L18.6763 156.968L19.6574 156.293L20.6599 155.646L21.6907 155.049L22.7429 154.48L23.8235 153.954L24.9255 153.471L26.0488 153.03L27.1934 152.625L28.3593 152.269L29.5395 151.956L30.741 151.686L31.9638 151.466L33.2008 151.295L34.452 151.167L35.7175 151.096L36.9972 151.068H208.71L138.363 80.7205L138.185 80.5427L138.007 80.3579L137.837 80.1659L137.666 79.974L137.502 79.782L137.339 79.583L137.182 79.3768L137.033 79.1777L136.884 78.9645L136.735 78.7583L136.6 78.545L136.457 78.3246L136.322 78.1042L136.194 77.8838L136.073 77.6563L135.953 77.4359L135.832 77.2013L135.725 76.9667L135.618 76.7321L135.512 76.4975L135.412 76.2558L135.32 76.0141L135.227 75.7723L135.142 75.5235L135.064 75.2747L134.993 75.0259L134.922 74.7699L134.851 74.5211L134.794 74.258L134.737 74.0021L134.687 73.7391L134.637 73.476L134.602 73.213L134.566 72.9499L134.538 72.6798L134.509 72.4096L134.495 72.1395L134.481 71.8693L134.467 71.5991V71.3219L134.481 70.7745L134.509 70.2341L134.566 69.6938L134.637 69.1677L134.737 68.6416L134.851 68.1298L134.986 67.6179L135.142 67.1202L135.32 66.6297L135.512 66.1463L135.725 65.677L135.953 65.2149L136.194 64.7599L136.457 64.3191L136.735 63.8926L137.033 63.4731L137.339 63.0679L137.666 62.6698L138.007 62.293L138.363 61.9233L138.725 61.5678L139.109 61.2266L139.5 60.9066L139.905 60.5938L140.325 60.3023L140.759 60.0251L141.199 59.762L141.647 59.5132L142.109 59.2857L142.586 59.0724L143.069 58.8805L143.56 58.7098L144.057 58.5534L144.562 58.4184L145.081 58.2975L145.6 58.2051L146.133 58.1269L146.666 58.0771L147.207 58.0416L147.761 58.0273L148.031 58.0345L148.309 58.0416L148.579 58.0558L148.849 58.0771L149.119 58.0984L149.382 58.1269L149.652 58.1624L149.915 58.2051L150.178 58.2477L150.441 58.3046L150.697 58.3544L150.953 58.4184L151.209 58.4823L151.465 58.5534L151.714 58.6316L151.963 58.7098L152.212 58.7952L152.453 58.8805L152.695 58.98L152.937 59.0795L153.171 59.1791L153.406 59.2857L153.641 59.3995L153.868 59.5203L154.096 59.6412L154.323 59.762L154.544 59.89L154.764 60.0251L154.984 60.1673L155.198 60.3023L155.404 60.4516L155.617 60.6009L155.816 60.7573L156.022 60.9138L156.221 61.0702L156.413 61.2408L156.605 61.4043L156.797 61.582L156.982 61.7527L157.167 61.9375L227.507 132.278L297.833 61.9446L298.018 61.7669L298.203 61.5891L298.395 61.4185L298.587 61.2479L298.779 61.0844L298.978 60.9209L299.184 60.7645L299.383 60.608L299.596 60.4588L299.802 60.3166L300.023 60.1744L300.236 60.0322L300.456 59.8971L300.677 59.7691L300.904 59.6412L301.132 59.5203L301.359 59.4066L301.594 59.2928L301.828 59.1862L302.07 59.0795L302.305 58.98L302.547 58.8876L302.795 58.7952L303.044 58.7098L303.293 58.6316L303.542 58.5534L303.798 58.4823L304.054 58.4184L304.31 58.3615L304.566 58.3046L304.829 58.2548L305.092 58.2051L305.355 58.1624L305.625 58.1269L305.888 58.0984L306.158 58.0771L306.428 58.0558L306.705 58.0416L306.976 58.0345L307.253 58.0273L307.8 58.0416L308.341 58.0771ZM87.9643 186.558L85.7959 186.686L83.656 186.906L81.5374 187.205L79.4402 187.589L77.3784 188.058L75.3523 188.598L73.3545 189.224L71.3923 189.92L69.4657 190.688L67.5746 191.534L65.7262 192.444L63.9204 193.425L62.1502 194.478L60.4297 195.594L58.759 196.767L57.1309 198.011L55.5598 199.312L54.0384 200.67L52.5667 202.085L51.152 203.556L49.7941 205.078L48.4931 206.656L47.2489 208.277L46.0759 209.955L44.9597 211.675L43.9075 213.438L42.9264 215.244L42.0164 217.092L41.1704 218.984L40.4026 220.91L39.7059 222.872L39.0802 224.87L38.5399 226.903L38.0778 228.965L37.6868 231.055L37.3882 233.174L37.1678 235.314L37.0399 237.482L36.9972 239.679V372.589L37.0399 374.778L37.1678 376.947L37.3882 379.094L37.6868 381.212L38.0778 383.303L38.5399 385.364L39.0802 387.39L39.7059 389.388L40.4026 391.35L41.1704 393.277L42.0164 395.168L42.9264 397.017L43.9075 398.829L44.9597 400.593L46.0759 402.313L47.2489 403.984L48.4931 405.612L49.7941 407.183L51.152 408.711L52.5667 410.176L54.0384 411.598L55.5598 412.956L57.1309 414.25L58.759 415.494L60.4297 416.674L62.1502 417.783L63.9204 418.835L65.7262 419.816L67.5746 420.733L69.4657 421.572L71.3923 422.347L73.3545 423.044L75.3523 423.662L77.3784 424.203L79.4402 424.672L81.5374 425.056L83.656 425.354L85.7959 425.575L87.9643 425.71L90.1611 425.753H289.522L290.987 425.717L292.444 425.618L293.902 425.454L295.345 425.219L296.781 424.921L298.21 424.558L299.632 424.125L301.046 423.627L302.454 423.058L303.862 422.425L305.255 421.729L306.642 420.968L308.021 420.136L309.4 419.24L310.765 418.274L312.123 417.243L313.481 416.148L314.824 414.982L316.168 413.759L317.498 412.458L318.827 411.1L320.142 409.671L321.457 408.171L322.758 406.614L324.059 404.986L325.346 403.287L326.633 401.531L327.906 399.704L329.178 397.806L330.444 395.843L331.695 393.817L332.946 391.727L334.19 389.566L335.427 387.341L336.65 385.044L337.873 382.691L339.089 380.26L340.297 377.771L341.499 375.212L342.686 372.589V239.679L342.643 237.482L342.515 235.314L342.295 233.174L341.996 231.055L341.613 228.965L341.143 226.903L340.603 224.87L339.977 222.872L339.281 220.91L338.513 218.984L337.667 217.092L336.757 215.244L335.776 213.438L334.724 211.675L333.607 209.955L332.434 208.277L331.19 206.656L329.889 205.078L328.531 203.556L327.116 202.085L325.652 200.67L324.123 199.312L322.552 198.011L320.924 196.767L319.254 195.594L317.533 194.478L315.763 193.425L313.957 192.444L312.109 191.534L310.218 190.688L308.291 189.92L306.329 189.224L304.331 188.598L302.305 188.058L300.243 187.589L298.146 187.205L296.027 186.906L293.887 186.686L291.719 186.558L289.522 186.508H90.1611L87.9643 186.558ZM393.682 257.488L392.608 257.595L391.549 257.744L390.504 257.936L389.473 258.17L388.456 258.441L387.461 258.753L386.48 259.102L385.513 259.486L384.567 259.905L383.643 260.367L382.74 260.858L381.859 261.377L380.998 261.938L380.16 262.528L379.349 263.147L378.56 263.794L377.799 264.476L377.067 265.18L376.356 265.92L375.681 266.68L375.027 267.469L374.408 268.28L373.818 269.119L373.263 269.979L372.737 270.861L372.247 271.764L371.785 272.688L371.365 273.633L370.981 274.593L370.633 275.574L370.32 276.577L370.05 277.593L369.815 278.624L369.623 279.669L369.474 280.728L369.367 281.802L369.296 282.883L369.275 283.977L369.296 285.072L369.367 286.16L369.474 287.234L369.623 288.293L369.815 289.338L370.05 290.369L370.32 291.385L370.633 292.381L370.981 293.362L371.365 294.329L371.785 295.274L372.247 296.198L372.737 297.101L373.263 297.983L373.818 298.843L374.408 299.682L375.027 300.493L375.681 301.282L376.356 302.042L377.067 302.775L377.799 303.486L378.56 304.161L379.349 304.815L380.16 305.434L380.998 306.024L381.859 306.578L382.74 307.104L383.643 307.595L384.567 308.05L385.513 308.476L386.48 308.86L387.461 309.209L388.456 309.514L389.473 309.792L390.504 310.019L391.549 310.211L392.608 310.367L393.682 310.474L394.762 310.538L395.857 310.559L396.952 310.538L398.04 310.474L399.113 310.367L400.172 310.211L401.217 310.019L402.248 309.792L403.258 309.514L404.26 309.209L405.241 308.86L406.201 308.476L407.147 308.05L408.071 307.595L408.974 307.104L409.863 306.578L410.723 306.024L411.555 305.434L412.372 304.815L413.154 304.161L413.915 303.486L414.654 302.775L415.358 302.042L416.041 301.282L416.688 300.493L417.313 299.682L417.903 298.843L418.458 297.983L418.984 297.101L419.474 296.198L419.929 295.274L420.349 294.329L420.74 293.362L421.088 292.381L421.394 291.385L421.671 290.369L421.899 289.338L422.091 288.293L422.24 287.234L422.354 286.16L422.418 285.072L422.439 283.977L422.418 282.883L422.354 281.802L422.24 280.728L422.091 279.669L421.899 278.624L421.671 277.593L421.394 276.577L421.088 275.574L420.74 274.593L420.349 273.633L419.929 272.688L419.474 271.764L418.984 270.861L418.458 269.979L417.903 269.119L417.313 268.28L416.688 267.469L416.041 266.68L415.358 265.92L414.654 265.18L413.915 264.476L413.154 263.794L412.372 263.147L411.555 262.528L410.723 261.938L409.863 261.377L408.974 260.858L408.071 260.367L407.147 259.905L406.201 259.486L405.241 259.102L404.26 258.753L403.258 258.441L402.248 258.17L401.217 257.936L400.172 257.744L399.113 257.595L398.04 257.488L396.952 257.417L395.857 257.396L394.762 257.417L393.682 257.488ZM393.682 186.6L392.608 186.707L391.549 186.856L390.504 187.048L389.473 187.283L388.456 187.553L387.461 187.866L386.48 188.214L385.513 188.598L384.567 189.025L383.643 189.48L382.74 189.97L381.859 190.496L380.998 191.051L380.16 191.641L379.349 192.259L378.56 192.906L377.799 193.589L377.067 194.3L376.356 195.032L375.681 195.793L375.027 196.582L374.408 197.392L373.818 198.231L373.263 199.092L372.737 199.973L372.247 200.876L371.785 201.8L371.365 202.746L370.981 203.713L370.633 204.694L370.32 205.689L370.05 206.706L369.815 207.737L369.623 208.782L369.474 209.841L369.367 210.914L369.296 211.995L369.275 213.097L369.296 214.192L369.367 215.272L369.474 216.346L369.623 217.405L369.815 218.45L370.05 219.481L370.32 220.498L370.633 221.493L370.981 222.474L371.365 223.441L371.785 224.387L372.247 225.311L372.737 226.214L373.263 227.095L373.818 227.956L374.408 228.795L375.027 229.605L375.681 230.394L376.356 231.155L377.067 231.887L377.799 232.598L378.56 233.281L379.349 233.927L380.16 234.546L380.998 235.136L381.859 235.691L382.74 236.217L383.643 236.707L384.567 237.162L385.513 237.589L386.48 237.973L387.461 238.321L388.456 238.634L389.473 238.904L390.504 239.139L391.549 239.331L392.608 239.48L393.682 239.587L394.762 239.651L395.857 239.679L396.952 239.651L398.04 239.587L399.113 239.48L400.172 239.331L401.217 239.139L402.248 238.904L403.258 238.634L404.26 238.321L405.241 237.973L406.201 237.589L407.147 237.162L408.071 236.707L408.974 236.217L409.863 235.691L410.723 235.136L411.555 234.546L412.372 233.927L413.154 233.281L413.915 232.598L414.654 231.887L415.358 231.155L416.041 230.394L416.688 229.605L417.313 228.795L417.903 227.956L418.458 227.095L418.984 226.214L419.474 225.311L419.929 224.387L420.349 223.441L420.74 222.474L421.088 221.493L421.394 220.498L421.671 219.481L421.899 218.45L422.091 217.405L422.24 216.346L422.354 215.272L422.418 214.192L422.439 213.097L422.418 211.995L422.354 210.914L422.24 209.841L422.091 208.782L421.899 207.737L421.671 206.706L421.394 205.689L421.088 204.694L420.74 203.713L420.349 202.746L419.929 201.8L419.474 200.876L418.984 199.973L418.458 199.092L417.903 198.231L417.313 197.392L416.688 196.582L416.041 195.793L415.358 195.032L414.654 194.3L413.915 193.589L413.154 192.906L412.372 192.259L411.555 191.641L410.723 191.051L409.863 190.496L408.974 189.97L408.071 189.48L407.147 189.025L406.201 188.598L405.241 188.214L404.26 187.866L403.258 187.553L402.248 187.283L401.217 187.048L400.172 186.856L399.113 186.707L398.04 186.6L396.952 186.536L395.857 186.508L394.762 186.536L393.682 186.6Z" fill="white"/>
<path d="M308.341 58.0771L308.874 58.1269L309.407 58.2051L309.933 58.2975L310.445 58.4184L310.95 58.5534L311.455 58.7098L311.945 58.8805L312.421 59.0724L312.898 59.2857L313.36 59.5132L313.808 59.762L314.256 60.0251L314.682 60.3023L315.102 60.5938L315.507 60.9066L315.898 61.2266L316.282 61.5678L316.651 61.9233L317 62.293L317.341 62.6698L317.668 63.0679L317.981 63.4731L318.272 63.8926L318.55 64.3191L318.813 64.7599L319.062 65.2149L319.289 65.677L319.495 66.1463L319.687 66.6297L319.865 67.1202L320.021 67.6179L320.156 68.1298L320.27 68.6416L320.37 69.1677L320.441 69.6938L320.498 70.2341L320.533 70.7745L320.54 71.3219V71.5991L320.533 71.8693L320.519 72.1395L320.498 72.4096L320.476 72.6798L320.441 72.9499L320.405 73.213L320.37 73.4831L320.32 73.7391L320.27 74.0021L320.213 74.2652L320.156 74.5211L320.092 74.777L320.021 75.0259L319.943 75.2747L319.865 75.5235L319.78 75.7723L319.687 76.0212L319.595 76.2629L319.495 76.4975L319.396 76.7392L319.282 76.9738L319.175 77.2084L319.054 77.4359L318.934 77.6634L318.813 77.8909L318.678 78.1113L318.55 78.3317L318.408 78.545L318.265 78.7583L318.123 78.9716L317.974 79.1777L317.817 79.3839L317.661 79.583L317.498 79.782L317.334 79.9811L317.163 80.173L316.993 80.3579L316.815 80.5427L316.637 80.7276L246.297 151.068H418.003L419.282 151.096L420.548 151.167L421.799 151.295L423.036 151.466L424.259 151.686L425.46 151.956L426.641 152.269L427.807 152.625L428.951 153.03L430.074 153.471L431.176 153.954L432.257 154.48L433.309 155.049L434.34 155.646L435.342 156.293L436.324 156.968L437.269 157.679L438.186 158.426L439.075 159.208L439.935 160.026L440.76 160.872L441.556 161.746L442.31 162.649L443.035 163.587L443.724 164.547L444.371 165.535L444.983 166.552L445.559 167.59L446.092 168.656L446.582 169.744L447.03 170.853L447.436 171.976L447.798 173.128L448.118 174.294L448.388 175.481L448.616 176.683L448.786 177.898L448.914 179.136L448.992 180.38L449.021 181.645V430.622L448.992 431.881L448.914 433.125L448.786 434.362L448.616 435.578L448.388 436.779L448.118 437.966L447.798 439.132L447.436 440.284L447.03 441.415L446.582 442.524L446.092 443.604L445.559 444.671L444.983 445.709L444.371 446.725L443.724 447.713L443.035 448.673L442.31 449.612L441.556 450.515L440.76 451.396L439.935 452.242L439.075 453.053L438.186 453.835L437.269 454.581L436.324 455.292L435.342 455.975L434.34 456.614L433.309 457.219L432.257 457.78L431.176 458.306L430.074 458.79L428.951 459.238L427.807 459.636L426.641 459.991L425.46 460.304L424.259 460.574L423.036 460.795L421.799 460.965L420.548 461.093L419.282 461.171L418.003 461.193H36.9972L35.7175 461.171L34.452 461.093L33.2008 460.965L31.9638 460.795L30.741 460.574L29.5395 460.304L28.3593 459.991L27.1934 459.636L26.0488 459.238L24.9255 458.79L23.8235 458.306L22.7429 457.78L21.6907 457.219L20.6599 456.614L19.6574 455.975L18.6763 455.292L17.7308 454.581L16.8137 453.835L15.925 453.053L15.0648 452.235L14.2401 451.389L13.4438 450.515L12.6903 449.612L11.9651 448.673L11.2755 447.713L10.6285 446.725L10.0171 445.709L9.44127 444.671L8.90807 443.604L8.41752 442.517L7.96963 441.407L7.56439 440.284L7.20182 439.132L6.88189 437.966L6.61174 436.779L6.38424 435.578L6.21361 434.355L6.08564 433.125L6.00744 431.874L5.979 430.615V181.645L6.00744 180.38L6.08564 179.136L6.21361 177.898L6.38424 176.683L6.61174 175.481L6.88189 174.294L7.20182 173.128L7.56439 171.976L7.96963 170.853L8.41752 169.744L8.90807 168.656L9.44127 167.59L10.0171 166.552L10.6285 165.535L11.2755 164.547L11.9651 163.587L12.6903 162.649L13.4438 161.746L14.2401 160.872L15.0648 160.026L15.925 159.208L16.8137 158.426L17.7308 157.679L18.6763 156.968L19.6574 156.293L20.6599 155.646L21.6907 155.049L22.7429 154.48L23.8235 153.954L24.9255 153.471L26.0488 153.03L27.1934 152.625L28.3593 152.269L29.5395 151.956L30.741 151.686L31.9638 151.466L33.2008 151.295L34.452 151.167L35.7175 151.096L36.9972 151.068H208.71L138.363 80.7205L138.185 80.5427L138.007 80.3579L137.837 80.1659L137.666 79.974L137.502 79.782L137.339 79.583L137.182 79.3768L137.033 79.1777L136.884 78.9645L136.735 78.7583L136.6 78.545L136.457 78.3246L136.322 78.1042L136.194 77.8838L136.073 77.6563L135.953 77.4359L135.832 77.2013L135.725 76.9667L135.618 76.7321L135.512 76.4975L135.412 76.2558L135.32 76.0141L135.227 75.7723L135.142 75.5235L135.064 75.2747L134.993 75.0259L134.922 74.7699L134.851 74.5211L134.794 74.258L134.737 74.0021L134.687 73.7391L134.637 73.476L134.602 73.213L134.566 72.9499L134.538 72.6798L134.509 72.4096L134.495 72.1395L134.481 71.8693L134.467 71.5991V71.3219L134.481 70.7745L134.509 70.2341L134.566 69.6938L134.637 69.1677L134.737 68.6416L134.851 68.1298L134.986 67.6179L135.142 67.1202L135.32 66.6297L135.512 66.1463L135.725 65.677L135.953 65.2149L136.194 64.7599L136.457 64.3191L136.735 63.8926L137.033 63.4731L137.339 63.0679L137.666 62.6698L138.007 62.293L138.363 61.9233L138.725 61.5678L139.109 61.2266L139.5 60.9066L139.905 60.5938L140.325 60.3023L140.759 60.0251L141.199 59.762L141.647 59.5132L142.109 59.2857L142.586 59.0724L143.069 58.8805L143.56 58.7098L144.057 58.5534L144.562 58.4184L145.081 58.2975L145.6 58.2051L146.133 58.1269L146.666 58.0771L147.207 58.0416L147.761 58.0273L148.031 58.0345L148.309 58.0416L148.579 58.0558L148.849 58.0771L149.119 58.0984L149.382 58.1269L149.652 58.1624L149.915 58.2051L150.178 58.2477L150.441 58.3046L150.697 58.3544L150.953 58.4184L151.209 58.4823L151.465 58.5534L151.714 58.6316L151.963 58.7098L152.212 58.7952L152.453 58.8805L152.695 58.98L152.937 59.0795L153.171 59.1791L153.406 59.2857L153.641 59.3995L153.868 59.5203L154.096 59.6412L154.323 59.762L154.544 59.89L154.764 60.0251L154.984 60.1673L155.198 60.3023L155.404 60.4516L155.617 60.6009L155.816 60.7573L156.022 60.9138L156.221 61.0702L156.413 61.2408L156.605 61.4043L156.797 61.582L156.982 61.7527L157.167 61.9375L227.507 132.278L297.833 61.9446L298.018 61.7669L298.203 61.5891L298.395 61.4185L298.587 61.2479L298.779 61.0844L298.978 60.9209L299.184 60.7645L299.383 60.608L299.596 60.4588L299.802 60.3166L300.023 60.1744L300.236 60.0322L300.456 59.8971L300.677 59.7691L300.904 59.6412L301.132 59.5203L301.359 59.4066L301.594 59.2928L301.828 59.1862L302.07 59.0795L302.305 58.98L302.547 58.8876L302.795 58.7952L303.044 58.7098L303.293 58.6316L303.542 58.5534L303.798 58.4823L304.054 58.4184L304.31 58.3615L304.566 58.3046L304.829 58.2548L305.092 58.2051L305.355 58.1624L305.625 58.1269L305.888 58.0984L306.158 58.0771L306.428 58.0558L306.705 58.0416L306.976 58.0345L307.253 58.0273L307.8 58.0416L308.341 58.0771ZM87.9643 186.558L85.7959 186.686L83.656 186.906L81.5374 187.205L79.4402 187.589L77.3784 188.058L75.3523 188.598L73.3545 189.224L71.3923 189.92L69.4657 190.688L67.5746 191.534L65.7262 192.444L63.9204 193.425L62.1502 194.478L60.4297 195.594L58.759 196.767L57.1309 198.011L55.5598 199.312L54.0384 200.67L52.5667 202.085L51.152 203.556L49.7941 205.078L48.4931 206.656L47.2489 208.277L46.0759 209.955L44.9597 211.675L43.9075 213.438L42.9264 215.244L42.0164 217.092L41.1704 218.984L40.4026 220.91L39.7059 222.872L39.0802 224.87L38.5399 226.903L38.0778 228.965L37.6868 231.055L37.3882 233.174L37.1678 235.314L37.0399 237.482L36.9972 239.679V372.589L37.0399 374.778L37.1678 376.947L37.3882 379.094L37.6868 381.212L38.0778 383.303L38.5399 385.364L39.0802 387.39L39.7059 389.388L40.4026 391.35L41.1704 393.277L42.0164 395.168L42.9264 397.017L43.9075 398.829L44.9597 400.593L46.0759 402.313L47.2489 403.984L48.4931 405.612L49.7941 407.183L51.152 408.711L52.5667 410.176L54.0384 411.598L55.5598 412.956L57.1309 414.25L58.759 415.494L60.4297 416.674L62.1502 417.783L63.9204 418.835L65.7262 419.816L67.5746 420.733L69.4657 421.572L71.3923 422.347L73.3545 423.044L75.3523 423.662L77.3784 424.203L79.4402 424.672L81.5374 425.056L83.656 425.354L85.7959 425.575L87.9643 425.71L90.1611 425.753H289.522L290.987 425.717L292.444 425.618L293.902 425.454L295.345 425.219L296.781 424.921L298.21 424.558L299.632 424.125L301.046 423.627L302.454 423.058L303.862 422.425L305.255 421.729L306.642 420.968L308.021 420.136L309.4 419.24L310.765 418.274L312.123 417.243L313.481 416.148L314.824 414.982L316.168 413.759L317.498 412.458L318.827 411.1L320.142 409.671L321.457 408.171L322.758 406.614L324.059 404.986L325.346 403.287L326.633 401.531L327.906 399.704L329.178 397.806L330.444 395.843L331.695 393.817L332.946 391.727L334.19 389.566L335.427 387.341L336.65 385.044L337.873 382.691L339.089 380.26L340.297 377.771L341.499 375.212L342.686 372.589V239.679L342.643 237.482L342.515 235.314L342.295 233.174L341.996 231.055L341.613 228.965L341.143 226.903L340.603 224.87L339.977 222.872L339.281 220.91L338.513 218.984L337.667 217.092L336.757 215.244L335.776 213.438L334.724 211.675L333.607 209.955L332.434 208.277L331.19 206.656L329.889 205.078L328.531 203.556L327.116 202.085L325.652 200.67L324.123 199.312L322.552 198.011L320.924 196.767L319.254 195.594L317.533 194.478L315.763 193.425L313.957 192.444L312.109 191.534L310.218 190.688L308.291 189.92L306.329 189.224L304.331 188.598L302.305 188.058L300.243 187.589L298.146 187.205L296.027 186.906L293.887 186.686L291.719 186.558L289.522 186.508H90.1611L87.9643 186.558ZM393.682 257.488L392.608 257.595L391.549 257.744L390.504 257.936L389.473 258.17L388.456 258.441L387.461 258.753L386.48 259.102L385.513 259.486L384.567 259.905L383.643 260.367L382.74 260.858L381.859 261.377L380.998 261.938L380.16 262.528L379.349 263.147L378.56 263.794L377.799 264.476L377.067 265.18L376.356 265.92L375.681 266.68L375.027 267.469L374.408 268.28L373.818 269.119L373.263 269.979L372.737 270.861L372.247 271.764L371.785 272.688L371.365 273.633L370.981 274.593L370.633 275.574L370.32 276.577L370.05 277.593L369.815 278.624L369.623 279.669L369.474 280.728L369.367 281.802L369.296 282.883L369.275 283.977L369.296 285.072L369.367 286.16L369.474 287.234L369.623 288.293L369.815 289.338L370.05 290.369L370.32 291.385L370.633 292.381L370.981 293.362L371.365 294.329L371.785 295.274L372.247 296.198L372.737 297.101L373.263 297.983L373.818 298.843L374.408 299.682L375.027 300.493L375.681 301.282L376.356 302.042L377.067 302.775L377.799 303.486L378.56 304.161L379.349 304.815L380.16 305.434L380.998 306.024L381.859 306.578L382.74 307.104L383.643 307.595L384.567 308.05L385.513 308.476L386.48 308.86L387.461 309.209L388.456 309.514L389.473 309.792L390.504 310.019L391.549 310.211L392.608 310.367L393.682 310.474L394.762 310.538L395.857 310.559L396.952 310.538L398.04 310.474L399.113 310.367L400.172 310.211L401.217 310.019L402.248 309.792L403.258 309.514L404.26 309.209L405.241 308.86L406.201 308.476L407.147 308.05L408.071 307.595L408.974 307.104L409.863 306.578L410.723 306.024L411.555 305.434L412.372 304.815L413.154 304.161L413.915 303.486L414.654 302.775L415.358 302.042L416.041 301.282L416.688 300.493L417.313 299.682L417.903 298.843L418.458 297.983L418.984 297.101L419.474 296.198L419.929 295.274L420.349 294.329L420.74 293.362L421.088 292.381L421.394 291.385L421.671 290.369L421.899 289.338L422.091 288.293L422.24 287.234L422.354 286.16L422.418 285.072L422.439 283.977L422.418 282.883L422.354 281.802L422.24 280.728L422.091 279.669L421.899 278.624L421.671 277.593L421.394 276.577L421.088 275.574L420.74 274.593L420.349 273.633L419.929 272.688L419.474 271.764L418.984 270.861L418.458 269.979L417.903 269.119L417.313 268.28L416.688 267.469L416.041 266.68L415.358 265.92L414.654 265.18L413.915 264.476L413.154 263.794L412.372 263.147L411.555 262.528L410.723 261.938L409.863 261.377L408.974 260.858L408.071 260.367L407.147 259.905L406.201 259.486L405.241 259.102L404.26 258.753L403.258 258.441L402.248 258.17L401.217 257.936L400.172 257.744L399.113 257.595L398.04 257.488L396.952 257.417L395.857 257.396L394.762 257.417L393.682 257.488ZM393.682 186.6L392.608 186.707L391.549 186.856L390.504 187.048L389.473 187.283L388.456 187.553L387.461 187.866L386.48 188.214L385.513 188.598L384.567 189.025L383.643 189.48L382.74 189.97L381.859 190.496L380.998 191.051L380.16 191.641L379.349 192.259L378.56 192.906L377.799 193.589L377.067 194.3L376.356 195.032L375.681 195.793L375.027 196.582L374.408 197.392L373.818 198.231L373.263 199.092L372.737 199.973L372.247 200.876L371.785 201.8L371.365 202.746L370.981 203.713L370.633 204.694L370.32 205.689L370.05 206.706L369.815 207.737L369.623 208.782L369.474 209.841L369.367 210.914L369.296 211.995L369.275 213.097L369.296 214.192L369.367 215.272L369.474 216.346L369.623 217.405L369.815 218.45L370.05 219.481L370.32 220.498L370.633 221.493L370.981 222.474L371.365 223.441L371.785 224.387L372.247 225.311L372.737 226.214L373.263 227.095L373.818 227.956L374.408 228.795L375.027 229.605L375.681 230.394L376.356 231.155L377.067 231.887L377.799 232.598L378.56 233.281L379.349 233.927L380.16 234.546L380.998 235.136L381.859 235.691L382.74 236.217L383.643 236.707L384.567 237.162L385.513 237.589L386.48 237.973L387.461 238.321L388.456 238.634L389.473 238.904L390.504 239.139L391.549 239.331L392.608 239.48L393.682 239.587L394.762 239.651L395.857 239.679L396.952 239.651L398.04 239.587L399.113 239.48L400.172 239.331L401.217 239.139L402.248 238.904L403.258 238.634L404.26 238.321L405.241 237.973L406.201 237.589L407.147 237.162L408.071 236.707L408.974 236.217L409.863 235.691L410.723 235.136L411.555 234.546L412.372 233.927L413.154 233.281L413.915 232.598L414.654 231.887L415.358 231.155L416.041 230.394L416.688 229.605L417.313 228.795L417.903 227.956L418.458 227.095L418.984 226.214L419.474 225.311L419.929 224.387L420.349 223.441L420.74 222.474L421.088 221.493L421.394 220.498L421.671 219.481L421.899 218.45L422.091 217.405L422.24 216.346L422.354 215.272L422.418 214.192L422.439 213.097L422.418 211.995L422.354 210.914L422.24 209.841L422.091 208.782L421.899 207.737L421.671 206.706L421.394 205.689L421.088 204.694L420.74 203.713L420.349 202.746L419.929 201.8L419.474 200.876L418.984 199.973L418.458 199.092L417.903 198.231L417.313 197.392L416.688 196.582L416.041 195.793L415.358 195.032L414.654 194.3L413.915 193.589L413.154 192.906L412.372 192.259L411.555 191.641L410.723 191.051L409.863 190.496L408.974 189.97L408.071 189.48L407.147 189.025L406.201 188.598L405.241 188.214L404.26 187.866L403.258 187.553L402.248 187.283L401.217 187.048L400.172 186.856L399.113 186.707L398.04 186.6L396.952 186.536L395.857 186.508L394.762 186.536L393.682 186.6Z" fill="white"/>
<path d="M102.61 253.933C100.598 257.161 99.3892 260.794 99.3892 263.609C99.7873 270.868 105.837 280.949 116.324 280.949H116.722C124.386 280.544 130.429 278.127 134.062 273.69C136.884 270.47 138.093 266.033 138.093 262.002C139.728 262.351 147.925 264.1 162.684 267.242L165.101 250.713L82.8599 233.373L80.8408 249.504C93.9079 252.163 101.159 253.642 102.61 253.933Z" fill="white"/>
<path d="M102.61 253.933C100.598 257.161 99.3892 260.794 99.3892 263.609C99.7873 270.868 105.837 280.949 116.324 280.949H116.722C124.386 280.544 130.429 278.127 134.062 273.69C136.884 270.47 138.093 266.033 138.093 262.002C139.728 262.351 147.925 264.1 162.684 267.242L165.101 250.713L82.8599 233.373L80.8408 249.504C93.9079 252.163 101.159 253.642 102.61 253.933Z" fill="white"/>
<path d="M211.867 246.277L214.291 262.806C229.043 259.663 237.24 257.915 238.882 257.566C240.091 264.825 242.913 270.47 247.755 273.69C251.381 276.107 255.817 277.323 259.848 276.513C264.284 276.107 277.991 272.482 275.972 254.744C275.972 253.13 275.169 251.516 274.358 249.902C275.837 249.582 283.231 247.969 296.532 245.068L294.115 228.944L211.867 246.277Z" fill="white"/>
<path d="M211.867 246.277L214.291 262.806C229.043 259.663 237.24 257.915 238.882 257.566C240.091 264.825 242.913 270.47 247.755 273.69C251.381 276.107 255.817 277.323 259.848 276.513C264.284 276.107 277.991 272.482 275.972 254.744C275.972 253.13 275.169 251.516 274.358 249.902C275.837 249.582 283.231 247.969 296.532 245.068L294.115 228.944L211.867 246.277Z" fill="white"/>
<path d="M21.5771 454.46V159.343L342.9 152.888L355.796 451.638L21.5771 454.46ZM48.1875 300.45L330.807 296.817L320.32 211.348L53.4272 220.221L48.1875 300.45Z" fill="white"/>
<path d="M21.5771 454.46V159.343L342.9 152.888L355.796 451.638L21.5771 454.46ZM48.1875 300.45L330.807 296.817L320.32 211.348L53.4272 220.221L48.1875 300.45Z" fill="white"/>
<path d="M645.8 280.05V303H561.5V198H643.85V220.95H590.9V238.65H637.55V260.85H590.9V280.05H645.8ZM710.281 198C719.781 198 728.031 199.6 735.031 202.8C742.031 205.9 747.431 210.4 751.231 216.3C755.031 222.1 756.931 228.95 756.931 236.85C756.931 244.75 755.031 251.6 751.231 257.4C747.431 263.2 742.031 267.7 735.031 270.9C728.031 274 719.781 275.55 710.281 275.55H691.981V303H662.281V198H710.281ZM708.481 252.15C714.581 252.15 719.181 250.85 722.281 248.25C725.381 245.55 726.931 241.75 726.931 236.85C726.931 231.95 725.381 228.15 722.281 225.45C719.181 222.75 714.581 221.4 708.481 221.4H691.981V252.15H708.481ZM771.412 198H801.112V303H771.412V198ZM859.142 305.1C850.642 305.1 842.392 304.05 834.392 301.95C826.392 299.85 819.892 297.05 814.892 293.55L824.642 271.65C829.342 274.75 834.792 277.25 840.992 279.15C847.192 281.05 853.292 282 859.292 282C870.692 282 876.392 279.15 876.392 273.45C876.392 270.45 874.742 268.25 871.442 266.85C868.242 265.35 863.042 263.8 855.842 262.2C847.942 260.5 841.342 258.7 836.042 256.8C830.742 254.8 826.192 251.65 822.392 247.35C818.592 243.05 816.692 237.25 816.692 229.95C816.692 223.55 818.442 217.8 821.942 212.7C825.442 207.5 830.642 203.4 837.542 200.4C844.542 197.4 853.092 195.9 863.192 195.9C870.092 195.9 876.892 196.7 883.592 198.3C890.292 199.8 896.192 202.05 901.292 205.05L892.142 227.1C882.142 221.7 872.442 219 863.042 219C857.142 219 852.842 219.9 850.142 221.7C847.442 223.4 846.092 225.65 846.092 228.45C846.092 231.25 847.692 233.35 850.892 234.75C854.092 236.15 859.242 237.6 866.342 239.1C874.342 240.8 880.942 242.65 886.142 244.65C891.442 246.55 895.992 249.65 899.792 253.95C903.692 258.15 905.642 263.9 905.642 271.2C905.642 277.5 903.892 283.2 900.392 288.3C896.892 293.4 891.642 297.5 884.642 300.6C877.642 303.6 869.142 305.1 859.142 305.1ZM972.311 305.1C961.211 305.1 951.211 302.75 942.311 298.05C933.511 293.35 926.561 286.85 921.461 278.55C916.461 270.25 913.961 260.9 913.961 250.5C913.961 240.1 916.461 230.75 921.461 222.45C926.561 214.15 933.511 207.65 942.311 202.95C951.211 198.25 961.211 195.9 972.311 195.9C983.411 195.9 993.361 198.25 1002.16 202.95C1011.06 207.65 1018.01 214.15 1023.01 222.45C1028.11 230.75 1030.66 240.1 1030.66 250.5C1030.66 260.9 1028.11 270.25 1023.01 278.55C1018.01 286.85 1011.06 293.35 1002.16 298.05C993.361 302.75 983.411 305.1 972.311 305.1ZM972.311 280.5C977.611 280.5 982.411 279.25 986.711 276.75C991.011 274.25 994.411 270.75 996.911 266.25C999.411 261.65 1000.66 256.4 1000.66 250.5C1000.66 244.6 999.411 239.4 996.911 234.9C994.411 230.3 991.011 226.75 986.711 224.25C982.411 221.75 977.611 220.5 972.311 220.5C967.011 220.5 962.211 221.75 957.911 224.25C953.611 226.75 950.211 230.3 947.711 234.9C945.211 239.4 943.961 244.6 943.961 250.5C943.961 256.4 945.211 261.65 947.711 266.25C950.211 270.75 953.611 274.25 957.911 276.75C962.211 279.25 967.011 280.5 972.311 280.5ZM1046.22 198H1095.87C1107.37 198 1117.57 200.15 1126.47 204.45C1135.37 208.75 1142.27 214.85 1147.17 222.75C1152.07 230.65 1154.52 239.9 1154.52 250.5C1154.52 261.1 1152.07 270.35 1147.17 278.25C1142.27 286.15 1135.37 292.25 1126.47 296.55C1117.57 300.85 1107.37 303 1095.87 303H1046.22V198ZM1094.67 279.3C1103.67 279.3 1110.87 276.75 1116.27 271.65C1121.77 266.55 1124.52 259.5 1124.52 250.5C1124.52 241.5 1121.77 234.45 1116.27 229.35C1110.87 224.25 1103.67 221.7 1094.67 221.7H1075.92V279.3H1094.67ZM1254.44 280.05V303H1170.14V198H1252.49V220.95H1199.54V238.65H1246.19V260.85H1199.54V280.05H1254.44ZM1414.48 198V303H1390.03L1343.68 247.05V303H1314.58V198H1339.03L1385.38 253.95V198H1414.48ZM1435.43 198H1465.13V303H1435.43V198ZM1586.16 198V303H1561.71L1515.36 247.05V303H1486.26V198H1510.71L1557.06 253.95V198H1586.16ZM1630.06 305.1C1622.36 305.1 1615.36 303.8 1609.06 301.2C1602.76 298.5 1597.61 294.65 1593.61 289.65L1609.81 270.45C1615.41 277.75 1621.46 281.4 1627.96 281.4C1632.26 281.4 1635.51 280.1 1637.71 277.5C1640.01 274.9 1641.16 271.1 1641.16 266.1V220.95H1604.86V198H1670.56V264.3C1670.56 277.9 1667.11 288.1 1660.21 294.9C1653.41 301.7 1643.36 305.1 1630.06 305.1ZM1758.75 282.6H1714.35L1706.1 303H1675.8L1722.15 198H1751.4L1797.9 303H1767L1758.75 282.6ZM1750.05 260.7L1736.55 227.1L1723.05 260.7H1750.05Z" fill="#FFC700"/>
<path d="M609.35 140.35C607.25 142.15 604.65 143.55 601.55 144.55C598.45 145.45 595.25 145.9 591.95 145.9C583.95 145.9 577.75 143.75 573.35 139.45C568.95 135.15 566.75 129 566.75 121V77.35H553.25V65.5H566.75V48.1H581.15V65.5H603.95V77.35H581.15V120.4C581.15 124.7 582.2 128 584.3 130.3C586.5 132.6 589.6 133.75 593.6 133.75C598 133.75 601.75 132.5 604.85 130L609.35 140.35ZM669.209 64.75C679.309 64.75 687.309 67.7 693.209 73.6C699.209 79.4 702.209 87.95 702.209 99.25V145H687.809V100.9C687.809 93.2 685.959 87.4 682.259 83.5C678.559 79.6 673.259 77.65 666.359 77.65C658.559 77.65 652.409 79.95 647.909 84.55C643.409 89.05 641.159 95.55 641.159 104.05V145H626.759V33.7H641.159V76.75C644.159 72.95 648.059 70 652.859 67.9C657.759 65.8 663.209 64.75 669.209 64.75ZM801.148 105.7C801.148 106.8 801.048 108.25 800.848 110.05H736.348C737.248 117.05 740.298 122.7 745.498 127C750.798 131.2 757.348 133.3 765.148 133.3C774.648 133.3 782.298 130.1 788.098 123.7L796.048 133C792.448 137.2 787.948 140.4 782.548 142.6C777.248 144.8 771.298 145.9 764.698 145.9C756.298 145.9 748.848 144.2 742.348 140.8C735.848 137.3 730.798 132.45 727.198 126.25C723.698 120.05 721.948 113.05 721.948 105.25C721.948 97.55 723.648 90.6 727.048 84.4C730.548 78.2 735.298 73.4 741.298 70C747.398 66.5 754.248 64.75 761.848 64.75C769.448 64.75 776.198 66.5 782.098 70C788.098 73.4 792.748 78.2 796.048 84.4C799.448 90.6 801.148 97.7 801.148 105.7ZM761.848 76.9C754.948 76.9 749.148 79 744.448 83.2C739.848 87.4 737.148 92.9 736.348 99.7H787.348C786.548 93 783.798 87.55 779.098 83.35C774.498 79.05 768.748 76.9 761.848 76.9Z" fill="#E5E5E5"/>
<path d="M606.8 362.75C614.5 362.75 621.4 364.45 627.5 367.85C633.6 371.25 638.35 376 641.75 382.1C645.25 388.2 647 395.25 647 403.25C647 411.25 645.25 418.35 641.75 424.55C638.35 430.65 633.6 435.4 627.5 438.8C621.4 442.2 614.5 443.9 606.8 443.9C601.1 443.9 595.85 442.8 591.05 440.6C586.35 438.4 582.35 435.2 579.05 431V472.1H564.65V363.5H578.45V376.1C581.65 371.7 585.7 368.4 590.6 366.2C595.5 363.9 600.9 362.75 606.8 362.75ZM605.6 431.3C610.7 431.3 615.25 430.15 619.25 427.85C623.35 425.45 626.55 422.15 628.85 417.95C631.25 413.65 632.45 408.75 632.45 403.25C632.45 397.75 631.25 392.9 628.85 388.7C626.55 384.4 623.35 381.1 619.25 378.8C615.25 376.5 610.7 375.35 605.6 375.35C600.6 375.35 596.05 376.55 591.95 378.95C587.95 381.25 584.75 384.5 582.35 388.7C580.05 392.9 578.9 397.75 578.9 403.25C578.9 408.75 580.05 413.65 582.35 417.95C584.65 422.15 587.85 425.45 591.95 427.85C596.05 430.15 600.6 431.3 605.6 431.3ZM700.946 443.9C693.046 443.9 685.946 442.15 679.646 438.65C673.346 435.15 668.396 430.35 664.796 424.25C661.296 418.05 659.546 411.05 659.546 403.25C659.546 395.45 661.296 388.5 664.796 382.4C668.396 376.2 673.346 371.4 679.646 368C685.946 364.5 693.046 362.75 700.946 362.75C708.846 362.75 715.896 364.5 722.096 368C728.396 371.4 733.296 376.2 736.796 382.4C740.396 388.5 742.196 395.45 742.196 403.25C742.196 411.05 740.396 418.05 736.796 424.25C733.296 430.35 728.396 435.15 722.096 438.65C715.896 442.15 708.846 443.9 700.946 443.9ZM700.946 431.3C706.046 431.3 710.596 430.15 714.596 427.85C718.696 425.45 721.896 422.15 724.196 417.95C726.496 413.65 727.646 408.75 727.646 403.25C727.646 397.75 726.496 392.9 724.196 388.7C721.896 384.4 718.696 381.1 714.596 378.8C710.596 376.5 706.046 375.35 700.946 375.35C695.846 375.35 691.246 376.5 687.146 378.8C683.146 381.1 679.946 384.4 677.546 388.7C675.246 392.9 674.096 397.75 674.096 403.25C674.096 408.75 675.246 413.65 677.546 417.95C679.946 422.15 683.146 425.45 687.146 427.85C691.246 430.15 695.846 431.3 700.946 431.3ZM837.111 331.7V443H823.311V430.4C820.111 434.8 816.061 438.15 811.161 440.45C806.261 442.75 800.861 443.9 794.961 443.9C787.261 443.9 780.361 442.2 774.261 438.8C768.161 435.4 763.361 430.65 759.861 424.55C756.461 418.35 754.761 411.25 754.761 403.25C754.761 395.25 756.461 388.2 759.861 382.1C763.361 376 768.161 371.25 774.261 367.85C780.361 364.45 787.261 362.75 794.961 362.75C800.661 362.75 805.911 363.85 810.711 366.05C815.511 368.15 819.511 371.3 822.711 375.5V331.7H837.111ZM796.161 431.3C801.161 431.3 805.711 430.15 809.811 427.85C813.911 425.45 817.111 422.15 819.411 417.95C821.711 413.65 822.861 408.75 822.861 403.25C822.861 397.75 821.711 392.9 819.411 388.7C817.111 384.4 813.911 381.1 809.811 378.8C805.711 376.5 801.161 375.35 796.161 375.35C791.061 375.35 786.461 376.5 782.361 378.8C778.361 381.1 775.161 384.4 772.761 388.7C770.461 392.9 769.311 397.75 769.311 403.25C769.311 408.75 770.461 413.65 772.761 417.95C775.161 422.15 778.361 425.45 782.361 427.85C786.461 430.15 791.061 431.3 796.161 431.3ZM899.007 443.9C890.907 443.9 883.657 442.15 877.257 438.65C870.957 435.15 866.007 430.35 862.407 424.25C858.807 418.05 857.007 411.05 857.007 403.25C857.007 395.45 858.807 388.5 862.407 382.4C866.007 376.2 870.957 371.4 877.257 368C883.657 364.5 890.907 362.75 899.007 362.75C906.207 362.75 912.607 364.2 918.207 367.1C923.907 370 928.307 374.2 931.407 379.7L920.457 386.75C917.957 382.95 914.857 380.1 911.157 378.2C907.457 376.3 903.357 375.35 898.857 375.35C893.657 375.35 888.957 376.5 884.757 378.8C880.657 381.1 877.407 384.4 875.007 388.7C872.707 392.9 871.557 397.75 871.557 403.25C871.557 408.85 872.707 413.8 875.007 418.1C877.407 422.3 880.657 425.55 884.757 427.85C888.957 430.15 893.657 431.3 898.857 431.3C903.357 431.3 907.457 430.35 911.157 428.45C914.857 426.55 917.957 423.7 920.457 419.9L931.407 426.8C928.307 432.3 923.907 436.55 918.207 439.55C912.607 442.45 906.207 443.9 899.007 443.9ZM979 362.75C990 362.75 998.4 365.45 1004.2 370.85C1010.1 376.25 1013.05 384.3 1013.05 395V443H999.4V432.5C997 436.2 993.55 439.05 989.05 441.05C984.65 442.95 979.4 443.9 973.3 443.9C964.4 443.9 957.25 441.75 951.85 437.45C946.55 433.15 943.9 427.5 943.9 420.5C943.9 413.5 946.45 407.9 951.55 403.7C956.65 399.4 964.75 397.25 975.85 397.25H998.65V394.4C998.65 388.2 996.85 383.45 993.25 380.15C989.65 376.85 984.35 375.2 977.35 375.2C972.65 375.2 968.05 376 963.55 377.6C959.05 379.1 955.25 381.15 952.15 383.75L946.15 372.95C950.25 369.65 955.15 367.15 960.85 365.45C966.55 363.65 972.6 362.75 979 362.75ZM975.7 432.8C981.2 432.8 985.95 431.6 989.95 429.2C993.95 426.7 996.85 423.2 998.65 418.7V407.6H976.45C964.25 407.6 958.15 411.7 958.15 419.9C958.15 423.9 959.7 427.05 962.8 429.35C965.9 431.65 970.2 432.8 975.7 432.8ZM1062.5 443.9C1056 443.9 1049.75 443.05 1043.75 441.35C1037.75 439.55 1033.05 437.3 1029.65 434.6L1035.65 423.2C1039.15 425.7 1043.4 427.7 1048.4 429.2C1053.4 430.7 1058.45 431.45 1063.55 431.45C1076.15 431.45 1082.45 427.85 1082.45 420.65C1082.45 418.25 1081.6 416.35 1079.9 414.95C1078.2 413.55 1076.05 412.55 1073.45 411.95C1070.95 411.25 1067.35 410.5 1062.65 409.7C1056.25 408.7 1051 407.55 1046.9 406.25C1042.9 404.95 1039.45 402.75 1036.55 399.65C1033.65 396.55 1032.2 392.2 1032.2 386.6C1032.2 379.4 1035.2 373.65 1041.2 369.35C1047.2 364.95 1055.25 362.75 1065.35 362.75C1070.65 362.75 1075.95 363.4 1081.25 364.7C1086.55 366 1090.9 367.75 1094.3 369.95L1088.15 381.35C1081.65 377.15 1074 375.05 1065.2 375.05C1059.1 375.05 1054.45 376.05 1051.25 378.05C1048.05 380.05 1046.45 382.7 1046.45 386C1046.45 388.6 1047.35 390.65 1049.15 392.15C1050.95 393.65 1053.15 394.75 1055.75 395.45C1058.45 396.15 1062.2 396.95 1067 397.85C1073.4 398.95 1078.55 400.15 1082.45 401.45C1086.45 402.65 1089.85 404.75 1092.65 407.75C1095.45 410.75 1096.85 414.95 1096.85 420.35C1096.85 427.55 1093.75 433.3 1087.55 437.6C1081.45 441.8 1073.1 443.9 1062.5 443.9ZM1159.55 438.35C1157.45 440.15 1154.85 441.55 1151.75 442.55C1148.65 443.45 1145.45 443.9 1142.15 443.9C1134.15 443.9 1127.95 441.75 1123.55 437.45C1119.15 433.15 1116.95 427 1116.95 419V375.35H1103.45V363.5H1116.95V346.1H1131.35V363.5H1154.15V375.35H1131.35V418.4C1131.35 422.7 1132.4 426 1134.5 428.3C1136.7 430.6 1139.8 431.75 1143.8 431.75C1148.2 431.75 1151.95 430.5 1155.05 428L1159.55 438.35Z" fill="#E5E5E5"/>
</svg>
