<svg viewBox="0 0 455 455" fill="none" xmlns="http://www.w3.org/2000/svg">
<path d="M308.341 23.0771L308.874 23.1269L309.407 23.2051L309.933 23.2975L310.445 23.4184L310.95 23.5534L311.455 23.7098L311.945 23.8805L312.421 24.0724L312.898 24.2857L313.36 24.5132L313.808 24.762L314.256 25.0251L314.682 25.3023L315.102 25.5938L315.507 25.9066L315.898 26.2266L316.282 26.5678L316.651 26.9233L317 27.293L317.341 27.6698L317.668 28.0679L317.981 28.4731L318.272 28.8926L318.55 29.3191L318.813 29.7599L319.062 30.2149L319.289 30.677L319.495 31.1463L319.687 31.6297L319.865 32.1202L320.021 32.6179L320.156 33.1298L320.27 33.6416L320.37 34.1677L320.441 34.6938L320.498 35.2341L320.533 35.7745L320.54 36.3219V36.5991L320.533 36.8693L320.519 37.1395L320.498 37.4096L320.476 37.6798L320.441 37.9499L320.405 38.213L320.37 38.4831L320.32 38.7391L320.27 39.0021L320.213 39.2652L320.156 39.5211L320.092 39.777L320.021 40.0259L319.943 40.2747L319.865 40.5235L319.78 40.7723L319.687 41.0212L319.595 41.2629L319.495 41.4975L319.396 41.7392L319.282 41.9738L319.175 42.2084L319.054 42.4359L318.934 42.6634L318.813 42.8909L318.678 43.1113L318.55 43.3317L318.408 43.545L318.265 43.7583L318.123 43.9716L317.974 44.1777L317.817 44.3839L317.661 44.583L317.498 44.782L317.334 44.9811L317.163 45.173L316.993 45.3579L316.815 45.5427L316.637 45.7276L246.297 116.068H418.003L419.282 116.096L420.548 116.167L421.799 116.295L423.036 116.466L424.259 116.686L425.46 116.956L426.641 117.269L427.807 117.625L428.951 118.03L430.074 118.471L431.176 118.954L432.257 119.48L433.309 120.049L434.34 120.646L435.342 121.293L436.324 121.968L437.269 122.679L438.186 123.426L439.075 124.208L439.935 125.026L440.76 125.872L441.556 126.746L442.31 127.649L443.035 128.587L443.724 129.547L444.371 130.535L444.983 131.552L445.559 132.59L446.092 133.656L446.582 134.744L447.03 135.853L447.436 136.976L447.798 138.128L448.118 139.294L448.388 140.481L448.616 141.683L448.786 142.898L448.914 144.136L448.992 145.38L449.021 146.645V395.622L448.992 396.881L448.914 398.125L448.786 399.362L448.616 400.578L448.388 401.779L448.118 402.966L447.798 404.132L447.436 405.284L447.03 406.415L446.582 407.524L446.092 408.604L445.559 409.671L444.983 410.709L444.371 411.725L443.724 412.713L443.035 413.673L442.31 414.612L441.556 415.515L440.76 416.396L439.935 417.242L439.075 418.053L438.186 418.835L437.269 419.581L436.324 420.292L435.342 420.975L434.34 421.614L433.309 422.219L432.257 422.78L431.176 423.306L430.074 423.79L428.951 424.238L427.807 424.636L426.641 424.991L425.46 425.304L424.259 425.574L423.036 425.795L421.799 425.965L420.548 426.093L419.282 426.171L418.003 426.193H36.9972L35.7175 426.171L34.452 426.093L33.2008 425.965L31.9638 425.795L30.741 425.574L29.5395 425.304L28.3593 424.991L27.1934 424.636L26.0488 424.238L24.9255 423.79L23.8235 423.306L22.7429 422.78L21.6907 422.219L20.6599 421.614L19.6574 420.975L18.6763 420.292L17.7308 419.581L16.8137 418.835L15.925 418.053L15.0648 417.235L14.2401 416.389L13.4438 415.515L12.6903 414.612L11.9651 413.673L11.2755 412.713L10.6285 411.725L10.0171 410.709L9.44127 409.671L8.90807 408.604L8.41752 407.517L7.96963 406.407L7.56439 405.284L7.20182 404.132L6.88189 402.966L6.61174 401.779L6.38424 400.578L6.21361 399.355L6.08564 398.125L6.00744 396.874L5.979 395.615V146.645L6.00744 145.38L6.08564 144.136L6.21361 142.898L6.38424 141.683L6.61174 140.481L6.88189 139.294L7.20182 138.128L7.56439 136.976L7.96963 135.853L8.41752 134.744L8.90807 133.656L9.44127 132.59L10.0171 131.552L10.6285 130.535L11.2755 129.547L11.9651 128.587L12.6903 127.649L13.4438 126.746L14.2401 125.872L15.0648 125.026L15.925 124.208L16.8137 123.426L17.7308 122.679L18.6763 121.968L19.6574 121.293L20.6599 120.646L21.6907 120.049L22.7429 119.48L23.8235 118.954L24.9255 118.471L26.0488 118.03L27.1934 117.625L28.3593 117.269L29.5395 116.956L30.741 116.686L31.9638 116.466L33.2008 116.295L34.452 116.167L35.7175 116.096L36.9972 116.068H208.71L138.363 45.7205L138.185 45.5427L138.007 45.3579L137.837 45.1659L137.666 44.974L137.502 44.782L137.339 44.583L137.182 44.3768L137.033 44.1777L136.884 43.9645L136.735 43.7583L136.6 43.545L136.457 43.3246L136.322 43.1042L136.194 42.8838L136.073 42.6563L135.953 42.4359L135.832 42.2013L135.725 41.9667L135.618 41.7321L135.512 41.4975L135.412 41.2558L135.32 41.0141L135.227 40.7723L135.142 40.5235L135.064 40.2747L134.993 40.0259L134.922 39.7699L134.851 39.5211L134.794 39.258L134.737 39.0021L134.687 38.7391L134.637 38.476L134.602 38.213L134.566 37.9499L134.538 37.6798L134.509 37.4096L134.495 37.1395L134.481 36.8693L134.467 36.5991V36.3219L134.481 35.7745L134.509 35.2341L134.566 34.6938L134.637 34.1677L134.737 33.6416L134.851 33.1298L134.986 32.6179L135.142 32.1202L135.32 31.6297L135.512 31.1463L135.725 30.677L135.953 30.2149L136.194 29.7599L136.457 29.3191L136.735 28.8926L137.033 28.4731L137.339 28.0679L137.666 27.6698L138.007 27.293L138.363 26.9233L138.725 26.5678L139.109 26.2266L139.5 25.9066L139.905 25.5938L140.325 25.3023L140.759 25.0251L141.199 24.762L141.647 24.5132L142.109 24.2857L142.586 24.0724L143.069 23.8805L143.56 23.7098L144.057 23.5534L144.562 23.4184L145.081 23.2975L145.6 23.2051L146.133 23.1269L146.666 23.0771L147.207 23.0416L147.761 23.0273L148.031 23.0345L148.309 23.0416L148.579 23.0558L148.849 23.0771L149.119 23.0984L149.382 23.1269L149.652 23.1624L149.915 23.2051L150.178 23.2477L150.441 23.3046L150.697 23.3544L150.953 23.4184L151.209 23.4823L151.465 23.5534L151.714 23.6316L151.963 23.7098L152.212 23.7952L152.453 23.8805L152.695 23.98L152.937 24.0795L153.171 24.1791L153.406 24.2857L153.641 24.3995L153.868 24.5203L154.096 24.6412L154.323 24.762L154.544 24.89L154.764 25.0251L154.984 25.1673L155.198 25.3023L155.404 25.4516L155.617 25.6009L155.816 25.7573L156.022 25.9138L156.221 26.0702L156.413 26.2408L156.605 26.4043L156.797 26.582L156.982 26.7527L157.167 26.9375L227.507 97.2776L297.833 26.9446L298.018 26.7669L298.203 26.5891L298.395 26.4185L298.587 26.2479L298.779 26.0844L298.978 25.9209L299.184 25.7645L299.383 25.608L299.596 25.4588L299.802 25.3166L300.023 25.1744L300.236 25.0322L300.456 24.8971L300.677 24.7691L300.904 24.6412L301.132 24.5203L301.359 24.4066L301.594 24.2928L301.828 24.1862L302.07 24.0795L302.305 23.98L302.547 23.8876L302.795 23.7952L303.044 23.7098L303.293 23.6316L303.542 23.5534L303.798 23.4823L304.054 23.4184L304.31 23.3615L304.566 23.3046L304.829 23.2548L305.092 23.2051L305.355 23.1624L305.625 23.1269L305.888 23.0984L306.158 23.0771L306.428 23.0558L306.705 23.0416L306.976 23.0345L307.253 23.0273L307.8 23.0416L308.341 23.0771ZM87.9643 151.558L85.7959 151.686L83.656 151.906L81.5374 152.205L79.4402 152.589L77.3784 153.058L75.3523 153.598L73.3545 154.224L71.3923 154.92L69.4657 155.688L67.5746 156.534L65.7262 157.444L63.9204 158.425L62.1502 159.478L60.4297 160.594L58.759 161.767L57.1309 163.011L55.5598 164.312L54.0384 165.67L52.5667 167.085L51.152 168.556L49.7941 170.078L48.4931 171.656L47.2489 173.277L46.0759 174.955L44.9597 176.675L43.9075 178.438L42.9264 180.244L42.0164 182.092L41.1704 183.984L40.4026 185.91L39.7059 187.872L39.0802 189.87L38.5399 191.903L38.0778 193.965L37.6868 196.055L37.3882 198.174L37.1678 200.314L37.0399 202.482L36.9972 204.679V337.589L37.0399 339.778L37.1678 341.947L37.3882 344.094L37.6868 346.212L38.0778 348.303L38.5399 350.364L39.0802 352.39L39.7059 354.388L40.4026 356.35L41.1704 358.277L42.0164 360.168L42.9264 362.017L43.9075 363.829L44.9597 365.593L46.0759 367.313L47.2489 368.984L48.4931 370.612L49.7941 372.183L51.152 373.711L52.5667 375.176L54.0384 376.598L55.5598 377.956L57.1309 379.25L58.759 380.494L60.4297 381.674L62.1502 382.783L63.9204 383.835L65.7262 384.816L67.5746 385.733L69.4657 386.572L71.3923 387.347L73.3545 388.044L75.3523 388.662L77.3784 389.203L79.4402 389.672L81.5374 390.056L83.656 390.354L85.7959 390.575L87.9643 390.71L90.1611 390.753H289.522L290.987 390.717L292.444 390.618L293.902 390.454L295.345 390.219L296.781 389.921L298.21 389.558L299.632 389.125L301.046 388.627L302.454 388.058L303.862 387.425L305.255 386.729L306.642 385.968L308.021 385.136L309.4 384.24L310.765 383.274L312.123 382.243L313.481 381.148L314.824 379.982L316.168 378.759L317.498 377.458L318.827 376.1L320.142 374.671L321.457 373.171L322.758 371.614L324.059 369.986L325.346 368.287L326.633 366.531L327.906 364.704L329.178 362.806L330.444 360.843L331.695 358.817L332.946 356.727L334.19 354.566L335.427 352.341L336.65 350.044L337.873 347.691L339.089 345.26L340.297 342.771L341.499 340.212L342.686 337.589V204.679L342.643 202.482L342.515 200.314L342.295 198.174L341.996 196.055L341.613 193.965L341.143 191.903L340.603 189.87L339.977 187.872L339.281 185.91L338.513 183.984L337.667 182.092L336.757 180.244L335.776 178.438L334.724 176.675L333.607 174.955L332.434 173.277L331.19 171.656L329.889 170.078L328.531 168.556L327.116 167.085L325.652 165.67L324.123 164.312L322.552 163.011L320.924 161.767L319.254 160.594L317.533 159.478L315.763 158.425L313.957 157.444L312.109 156.534L310.218 155.688L308.291 154.92L306.329 154.224L304.331 153.598L302.305 153.058L300.243 152.589L298.146 152.205L296.027 151.906L293.887 151.686L291.719 151.558L289.522 151.508H90.1611L87.9643 151.558ZM393.682 222.488L392.608 222.595L391.549 222.744L390.504 222.936L389.473 223.17L388.456 223.441L387.461 223.753L386.48 224.102L385.513 224.486L384.567 224.905L383.643 225.367L382.74 225.858L381.859 226.377L380.998 226.938L380.16 227.528L379.349 228.147L378.56 228.794L377.799 229.476L377.067 230.18L376.356 230.92L375.681 231.68L375.027 232.469L374.408 233.28L373.818 234.119L373.263 234.979L372.737 235.861L372.247 236.764L371.785 237.688L371.365 238.633L370.981 239.593L370.633 240.574L370.32 241.577L370.05 242.593L369.815 243.624L369.623 244.669L369.474 245.728L369.367 246.802L369.296 247.883L369.275 248.977L369.296 250.072L369.367 251.16L369.474 252.234L369.623 253.293L369.815 254.338L370.05 255.369L370.32 256.385L370.633 257.381L370.981 258.362L371.365 259.329L371.785 260.274L372.247 261.198L372.737 262.101L373.263 262.983L373.818 263.843L374.408 264.682L375.027 265.493L375.681 266.282L376.356 267.042L377.067 267.775L377.799 268.486L378.56 269.161L379.349 269.815L380.16 270.434L380.998 271.024L381.859 271.578L382.74 272.104L383.643 272.595L384.567 273.05L385.513 273.476L386.48 273.86L387.461 274.209L388.456 274.514L389.473 274.792L390.504 275.019L391.549 275.211L392.608 275.367L393.682 275.474L394.762 275.538L395.857 275.559L396.952 275.538L398.04 275.474L399.113 275.367L400.172 275.211L401.217 275.019L402.248 274.792L403.258 274.514L404.26 274.209L405.241 273.86L406.201 273.476L407.147 273.05L408.071 272.595L408.974 272.104L409.863 271.578L410.723 271.024L411.555 270.434L412.372 269.815L413.154 269.161L413.915 268.486L414.654 267.775L415.358 267.042L416.041 266.282L416.688 265.493L417.313 264.682L417.903 263.843L418.458 262.983L418.984 262.101L419.474 261.198L419.929 260.274L420.349 259.329L420.74 258.362L421.088 257.381L421.394 256.385L421.671 255.369L421.899 254.338L422.091 253.293L422.24 252.234L422.354 251.16L422.418 250.072L422.439 248.977L422.418 247.883L422.354 246.802L422.24 245.728L422.091 244.669L421.899 243.624L421.671 242.593L421.394 241.577L421.088 240.574L420.74 239.593L420.349 238.633L419.929 237.688L419.474 236.764L418.984 235.861L418.458 234.979L417.903 234.119L417.313 233.28L416.688 232.469L416.041 231.68L415.358 230.92L414.654 230.18L413.915 229.476L413.154 228.794L412.372 228.147L411.555 227.528L410.723 226.938L409.863 226.377L408.974 225.858L408.071 225.367L407.147 224.905L406.201 224.486L405.241 224.102L404.26 223.753L403.258 223.441L402.248 223.17L401.217 222.936L400.172 222.744L399.113 222.595L398.04 222.488L396.952 222.417L395.857 222.396L394.762 222.417L393.682 222.488ZM393.682 151.6L392.608 151.707L391.549 151.856L390.504 152.048L389.473 152.283L388.456 152.553L387.461 152.866L386.48 153.214L385.513 153.598L384.567 154.025L383.643 154.48L382.74 154.97L381.859 155.496L380.998 156.051L380.16 156.641L379.349 157.259L378.56 157.906L377.799 158.589L377.067 159.3L376.356 160.032L375.681 160.793L375.027 161.582L374.408 162.392L373.818 163.231L373.263 164.092L372.737 164.973L372.247 165.876L371.785 166.8L371.365 167.746L370.981 168.713L370.633 169.694L370.32 170.689L370.05 171.706L369.815 172.737L369.623 173.782L369.474 174.841L369.367 175.914L369.296 176.995L369.275 178.097L369.296 179.192L369.367 180.272L369.474 181.346L369.623 182.405L369.815 183.45L370.05 184.481L370.32 185.498L370.633 186.493L370.981 187.474L371.365 188.441L371.785 189.387L372.247 190.311L372.737 191.214L373.263 192.095L373.818 192.956L374.408 193.795L375.027 194.605L375.681 195.394L376.356 196.155L377.067 196.887L377.799 197.598L378.56 198.281L379.349 198.927L380.16 199.546L380.998 200.136L381.859 200.691L382.74 201.217L383.643 201.707L384.567 202.162L385.513 202.589L386.48 202.973L387.461 203.321L388.456 203.634L389.473 203.904L390.504 204.139L391.549 204.331L392.608 204.48L393.682 204.587L394.762 204.651L395.857 204.679L396.952 204.651L398.04 204.587L399.113 204.48L400.172 204.331L401.217 204.139L402.248 203.904L403.258 203.634L404.26 203.321L405.241 202.973L406.201 202.589L407.147 202.162L408.071 201.707L408.974 201.217L409.863 200.691L410.723 200.136L411.555 199.546L412.372 198.927L413.154 198.281L413.915 197.598L414.654 196.887L415.358 196.155L416.041 195.394L416.688 194.605L417.313 193.795L417.903 192.956L418.458 192.095L418.984 191.214L419.474 190.311L419.929 189.387L420.349 188.441L420.74 187.474L421.088 186.493L421.394 185.498L421.671 184.481L421.899 183.45L422.091 182.405L422.24 181.346L422.354 180.272L422.418 179.192L422.439 178.097L422.418 176.995L422.354 175.914L422.24 174.841L422.091 173.782L421.899 172.737L421.671 171.706L421.394 170.689L421.088 169.694L420.74 168.713L420.349 167.746L419.929 166.8L419.474 165.876L418.984 164.973L418.458 164.092L417.903 163.231L417.313 162.392L416.688 161.582L416.041 160.793L415.358 160.032L414.654 159.3L413.915 158.589L413.154 157.906L412.372 157.259L411.555 156.641L410.723 156.051L409.863 155.496L408.974 154.97L408.071 154.48L407.147 154.025L406.201 153.598L405.241 153.214L404.26 152.866L403.258 152.553L402.248 152.283L401.217 152.048L400.172 151.856L399.113 151.707L398.04 151.6L396.952 151.536L395.857 151.508L394.762 151.536L393.682 151.6Z" fill="white"/>
<path d="M308.341 23.0771L308.874 23.1269L309.407 23.2051L309.933 23.2975L310.445 23.4184L310.95 23.5534L311.455 23.7098L311.945 23.8805L312.421 24.0724L312.898 24.2857L313.36 24.5132L313.808 24.762L314.256 25.0251L314.682 25.3023L315.102 25.5938L315.507 25.9066L315.898 26.2266L316.282 26.5678L316.651 26.9233L317 27.293L317.341 27.6698L317.668 28.0679L317.981 28.4731L318.272 28.8926L318.55 29.3191L318.813 29.7599L319.062 30.2149L319.289 30.677L319.495 31.1463L319.687 31.6297L319.865 32.1202L320.021 32.6179L320.156 33.1298L320.27 33.6416L320.37 34.1677L320.441 34.6938L320.498 35.2341L320.533 35.7745L320.54 36.3219V36.5991L320.533 36.8693L320.519 37.1395L320.498 37.4096L320.476 37.6798L320.441 37.9499L320.405 38.213L320.37 38.4831L320.32 38.7391L320.27 39.0021L320.213 39.2652L320.156 39.5211L320.092 39.777L320.021 40.0259L319.943 40.2747L319.865 40.5235L319.78 40.7723L319.687 41.0212L319.595 41.2629L319.495 41.4975L319.396 41.7392L319.282 41.9738L319.175 42.2084L319.054 42.4359L318.934 42.6634L318.813 42.8909L318.678 43.1113L318.55 43.3317L318.408 43.545L318.265 43.7583L318.123 43.9716L317.974 44.1777L317.817 44.3839L317.661 44.583L317.498 44.782L317.334 44.9811L317.163 45.173L316.993 45.3579L316.815 45.5427L316.637 45.7276L246.297 116.068H418.003L419.282 116.096L420.548 116.167L421.799 116.295L423.036 116.466L424.259 116.686L425.46 116.956L426.641 117.269L427.807 117.625L428.951 118.03L430.074 118.471L431.176 118.954L432.257 119.48L433.309 120.049L434.34 120.646L435.342 121.293L436.324 121.968L437.269 122.679L438.186 123.426L439.075 124.208L439.935 125.026L440.76 125.872L441.556 126.746L442.31 127.649L443.035 128.587L443.724 129.547L444.371 130.535L444.983 131.552L445.559 132.59L446.092 133.656L446.582 134.744L447.03 135.853L447.436 136.976L447.798 138.128L448.118 139.294L448.388 140.481L448.616 141.683L448.786 142.898L448.914 144.136L448.992 145.38L449.021 146.645V395.622L448.992 396.881L448.914 398.125L448.786 399.362L448.616 400.578L448.388 401.779L448.118 402.966L447.798 404.132L447.436 405.284L447.03 406.415L446.582 407.524L446.092 408.604L445.559 409.671L444.983 410.709L444.371 411.725L443.724 412.713L443.035 413.673L442.31 414.612L441.556 415.515L440.76 416.396L439.935 417.242L439.075 418.053L438.186 418.835L437.269 419.581L436.324 420.292L435.342 420.975L434.34 421.614L433.309 422.219L432.257 422.78L431.176 423.306L430.074 423.79L428.951 424.238L427.807 424.636L426.641 424.991L425.46 425.304L424.259 425.574L423.036 425.795L421.799 425.965L420.548 426.093L419.282 426.171L418.003 426.193H36.9972L35.7175 426.171L34.452 426.093L33.2008 425.965L31.9638 425.795L30.741 425.574L29.5395 425.304L28.3593 424.991L27.1934 424.636L26.0488 424.238L24.9255 423.79L23.8235 423.306L22.7429 422.78L21.6907 422.219L20.6599 421.614L19.6574 420.975L18.6763 420.292L17.7308 419.581L16.8137 418.835L15.925 418.053L15.0648 417.235L14.2401 416.389L13.4438 415.515L12.6903 414.612L11.9651 413.673L11.2755 412.713L10.6285 411.725L10.0171 410.709L9.44127 409.671L8.90807 408.604L8.41752 407.517L7.96963 406.407L7.56439 405.284L7.20182 404.132L6.88189 402.966L6.61174 401.779L6.38424 400.578L6.21361 399.355L6.08564 398.125L6.00744 396.874L5.979 395.615V146.645L6.00744 145.38L6.08564 144.136L6.21361 142.898L6.38424 141.683L6.61174 140.481L6.88189 139.294L7.20182 138.128L7.56439 136.976L7.96963 135.853L8.41752 134.744L8.90807 133.656L9.44127 132.59L10.0171 131.552L10.6285 130.535L11.2755 129.547L11.9651 128.587L12.6903 127.649L13.4438 126.746L14.2401 125.872L15.0648 125.026L15.925 124.208L16.8137 123.426L17.7308 122.679L18.6763 121.968L19.6574 121.293L20.6599 120.646L21.6907 120.049L22.7429 119.48L23.8235 118.954L24.9255 118.471L26.0488 118.03L27.1934 117.625L28.3593 117.269L29.5395 116.956L30.741 116.686L31.9638 116.466L33.2008 116.295L34.452 116.167L35.7175 116.096L36.9972 116.068H208.71L138.363 45.7205L138.185 45.5427L138.007 45.3579L137.837 45.1659L137.666 44.974L137.502 44.782L137.339 44.583L137.182 44.3768L137.033 44.1777L136.884 43.9645L136.735 43.7583L136.6 43.545L136.457 43.3246L136.322 43.1042L136.194 42.8838L136.073 42.6563L135.953 42.4359L135.832 42.2013L135.725 41.9667L135.618 41.7321L135.512 41.4975L135.412 41.2558L135.32 41.0141L135.227 40.7723L135.142 40.5235L135.064 40.2747L134.993 40.0259L134.922 39.7699L134.851 39.5211L134.794 39.258L134.737 39.0021L134.687 38.7391L134.637 38.476L134.602 38.213L134.566 37.9499L134.538 37.6798L134.509 37.4096L134.495 37.1395L134.481 36.8693L134.467 36.5991V36.3219L134.481 35.7745L134.509 35.2341L134.566 34.6938L134.637 34.1677L134.737 33.6416L134.851 33.1298L134.986 32.6179L135.142 32.1202L135.32 31.6297L135.512 31.1463L135.725 30.677L135.953 30.2149L136.194 29.7599L136.457 29.3191L136.735 28.8926L137.033 28.4731L137.339 28.0679L137.666 27.6698L138.007 27.293L138.363 26.9233L138.725 26.5678L139.109 26.2266L139.5 25.9066L139.905 25.5938L140.325 25.3023L140.759 25.0251L141.199 24.762L141.647 24.5132L142.109 24.2857L142.586 24.0724L143.069 23.8805L143.56 23.7098L144.057 23.5534L144.562 23.4184L145.081 23.2975L145.6 23.2051L146.133 23.1269L146.666 23.0771L147.207 23.0416L147.761 23.0273L148.031 23.0345L148.309 23.0416L148.579 23.0558L148.849 23.0771L149.119 23.0984L149.382 23.1269L149.652 23.1624L149.915 23.2051L150.178 23.2477L150.441 23.3046L150.697 23.3544L150.953 23.4184L151.209 23.4823L151.465 23.5534L151.714 23.6316L151.963 23.7098L152.212 23.7952L152.453 23.8805L152.695 23.98L152.937 24.0795L153.171 24.1791L153.406 24.2857L153.641 24.3995L153.868 24.5203L154.096 24.6412L154.323 24.762L154.544 24.89L154.764 25.0251L154.984 25.1673L155.198 25.3023L155.404 25.4516L155.617 25.6009L155.816 25.7573L156.022 25.9138L156.221 26.0702L156.413 26.2408L156.605 26.4043L156.797 26.582L156.982 26.7527L157.167 26.9375L227.507 97.2776L297.833 26.9446L298.018 26.7669L298.203 26.5891L298.395 26.4185L298.587 26.2479L298.779 26.0844L298.978 25.9209L299.184 25.7645L299.383 25.608L299.596 25.4588L299.802 25.3166L300.023 25.1744L300.236 25.0322L300.456 24.8971L300.677 24.7691L300.904 24.6412L301.132 24.5203L301.359 24.4066L301.594 24.2928L301.828 24.1862L302.07 24.0795L302.305 23.98L302.547 23.8876L302.795 23.7952L303.044 23.7098L303.293 23.6316L303.542 23.5534L303.798 23.4823L304.054 23.4184L304.31 23.3615L304.566 23.3046L304.829 23.2548L305.092 23.2051L305.355 23.1624L305.625 23.1269L305.888 23.0984L306.158 23.0771L306.428 23.0558L306.705 23.0416L306.976 23.0345L307.253 23.0273L307.8 23.0416L308.341 23.0771ZM87.9643 151.558L85.7959 151.686L83.656 151.906L81.5374 152.205L79.4402 152.589L77.3784 153.058L75.3523 153.598L73.3545 154.224L71.3923 154.92L69.4657 155.688L67.5746 156.534L65.7262 157.444L63.9204 158.425L62.1502 159.478L60.4297 160.594L58.759 161.767L57.1309 163.011L55.5598 164.312L54.0384 165.67L52.5667 167.085L51.152 168.556L49.7941 170.078L48.4931 171.656L47.2489 173.277L46.0759 174.955L44.9597 176.675L43.9075 178.438L42.9264 180.244L42.0164 182.092L41.1704 183.984L40.4026 185.91L39.7059 187.872L39.0802 189.87L38.5399 191.903L38.0778 193.965L37.6868 196.055L37.3882 198.174L37.1678 200.314L37.0399 202.482L36.9972 204.679V337.589L37.0399 339.778L37.1678 341.947L37.3882 344.094L37.6868 346.212L38.0778 348.303L38.5399 350.364L39.0802 352.39L39.7059 354.388L40.4026 356.35L41.1704 358.277L42.0164 360.168L42.9264 362.017L43.9075 363.829L44.9597 365.593L46.0759 367.313L47.2489 368.984L48.4931 370.612L49.7941 372.183L51.152 373.711L52.5667 375.176L54.0384 376.598L55.5598 377.956L57.1309 379.25L58.759 380.494L60.4297 381.674L62.1502 382.783L63.9204 383.835L65.7262 384.816L67.5746 385.733L69.4657 386.572L71.3923 387.347L73.3545 388.044L75.3523 388.662L77.3784 389.203L79.4402 389.672L81.5374 390.056L83.656 390.354L85.7959 390.575L87.9643 390.71L90.1611 390.753H289.522L290.987 390.717L292.444 390.618L293.902 390.454L295.345 390.219L296.781 389.921L298.21 389.558L299.632 389.125L301.046 388.627L302.454 388.058L303.862 387.425L305.255 386.729L306.642 385.968L308.021 385.136L309.4 384.24L310.765 383.274L312.123 382.243L313.481 381.148L314.824 379.982L316.168 378.759L317.498 377.458L318.827 376.1L320.142 374.671L321.457 373.171L322.758 371.614L324.059 369.986L325.346 368.287L326.633 366.531L327.906 364.704L329.178 362.806L330.444 360.843L331.695 358.817L332.946 356.727L334.19 354.566L335.427 352.341L336.65 350.044L337.873 347.691L339.089 345.26L340.297 342.771L341.499 340.212L342.686 337.589V204.679L342.643 202.482L342.515 200.314L342.295 198.174L341.996 196.055L341.613 193.965L341.143 191.903L340.603 189.87L339.977 187.872L339.281 185.91L338.513 183.984L337.667 182.092L336.757 180.244L335.776 178.438L334.724 176.675L333.607 174.955L332.434 173.277L331.19 171.656L329.889 170.078L328.531 168.556L327.116 167.085L325.652 165.67L324.123 164.312L322.552 163.011L320.924 161.767L319.254 160.594L317.533 159.478L315.763 158.425L313.957 157.444L312.109 156.534L310.218 155.688L308.291 154.92L306.329 154.224L304.331 153.598L302.305 153.058L300.243 152.589L298.146 152.205L296.027 151.906L293.887 151.686L291.719 151.558L289.522 151.508H90.1611L87.9643 151.558ZM393.682 222.488L392.608 222.595L391.549 222.744L390.504 222.936L389.473 223.17L388.456 223.441L387.461 223.753L386.48 224.102L385.513 224.486L384.567 224.905L383.643 225.367L382.74 225.858L381.859 226.377L380.998 226.938L380.16 227.528L379.349 228.147L378.56 228.794L377.799 229.476L377.067 230.18L376.356 230.92L375.681 231.68L375.027 232.469L374.408 233.28L373.818 234.119L373.263 234.979L372.737 235.861L372.247 236.764L371.785 237.688L371.365 238.633L370.981 239.593L370.633 240.574L370.32 241.577L370.05 242.593L369.815 243.624L369.623 244.669L369.474 245.728L369.367 246.802L369.296 247.883L369.275 248.977L369.296 250.072L369.367 251.16L369.474 252.234L369.623 253.293L369.815 254.338L370.05 255.369L370.32 256.385L370.633 257.381L370.981 258.362L371.365 259.329L371.785 260.274L372.247 261.198L372.737 262.101L373.263 262.983L373.818 263.843L374.408 264.682L375.027 265.493L375.681 266.282L376.356 267.042L377.067 267.775L377.799 268.486L378.56 269.161L379.349 269.815L380.16 270.434L380.998 271.024L381.859 271.578L382.74 272.104L383.643 272.595L384.567 273.05L385.513 273.476L386.48 273.86L387.461 274.209L388.456 274.514L389.473 274.792L390.504 275.019L391.549 275.211L392.608 275.367L393.682 275.474L394.762 275.538L395.857 275.559L396.952 275.538L398.04 275.474L399.113 275.367L400.172 275.211L401.217 275.019L402.248 274.792L403.258 274.514L404.26 274.209L405.241 273.86L406.201 273.476L407.147 273.05L408.071 272.595L408.974 272.104L409.863 271.578L410.723 271.024L411.555 270.434L412.372 269.815L413.154 269.161L413.915 268.486L414.654 267.775L415.358 267.042L416.041 266.282L416.688 265.493L417.313 264.682L417.903 263.843L418.458 262.983L418.984 262.101L419.474 261.198L419.929 260.274L420.349 259.329L420.74 258.362L421.088 257.381L421.394 256.385L421.671 255.369L421.899 254.338L422.091 253.293L422.24 252.234L422.354 251.16L422.418 250.072L422.439 248.977L422.418 247.883L422.354 246.802L422.24 245.728L422.091 244.669L421.899 243.624L421.671 242.593L421.394 241.577L421.088 240.574L420.74 239.593L420.349 238.633L419.929 237.688L419.474 236.764L418.984 235.861L418.458 234.979L417.903 234.119L417.313 233.28L416.688 232.469L416.041 231.68L415.358 230.92L414.654 230.18L413.915 229.476L413.154 228.794L412.372 228.147L411.555 227.528L410.723 226.938L409.863 226.377L408.974 225.858L408.071 225.367L407.147 224.905L406.201 224.486L405.241 224.102L404.26 223.753L403.258 223.441L402.248 223.17L401.217 222.936L400.172 222.744L399.113 222.595L398.04 222.488L396.952 222.417L395.857 222.396L394.762 222.417L393.682 222.488ZM393.682 151.6L392.608 151.707L391.549 151.856L390.504 152.048L389.473 152.283L388.456 152.553L387.461 152.866L386.48 153.214L385.513 153.598L384.567 154.025L383.643 154.48L382.74 154.97L381.859 155.496L380.998 156.051L380.16 156.641L379.349 157.259L378.56 157.906L377.799 158.589L377.067 159.3L376.356 160.032L375.681 160.793L375.027 161.582L374.408 162.392L373.818 163.231L373.263 164.092L372.737 164.973L372.247 165.876L371.785 166.8L371.365 167.746L370.981 168.713L370.633 169.694L370.32 170.689L370.05 171.706L369.815 172.737L369.623 173.782L369.474 174.841L369.367 175.914L369.296 176.995L369.275 178.097L369.296 179.192L369.367 180.272L369.474 181.346L369.623 182.405L369.815 183.45L370.05 184.481L370.32 185.498L370.633 186.493L370.981 187.474L371.365 188.441L371.785 189.387L372.247 190.311L372.737 191.214L373.263 192.095L373.818 192.956L374.408 193.795L375.027 194.605L375.681 195.394L376.356 196.155L377.067 196.887L377.799 197.598L378.56 198.281L379.349 198.927L380.16 199.546L380.998 200.136L381.859 200.691L382.74 201.217L383.643 201.707L384.567 202.162L385.513 202.589L386.48 202.973L387.461 203.321L388.456 203.634L389.473 203.904L390.504 204.139L391.549 204.331L392.608 204.48L393.682 204.587L394.762 204.651L395.857 204.679L396.952 204.651L398.04 204.587L399.113 204.48L400.172 204.331L401.217 204.139L402.248 203.904L403.258 203.634L404.26 203.321L405.241 202.973L406.201 202.589L407.147 202.162L408.071 201.707L408.974 201.217L409.863 200.691L410.723 200.136L411.555 199.546L412.372 198.927L413.154 198.281L413.915 197.598L414.654 196.887L415.358 196.155L416.041 195.394L416.688 194.605L417.313 193.795L417.903 192.956L418.458 192.095L418.984 191.214L419.474 190.311L419.929 189.387L420.349 188.441L420.74 187.474L421.088 186.493L421.394 185.498L421.671 184.481L421.899 183.45L422.091 182.405L422.24 181.346L422.354 180.272L422.418 179.192L422.439 178.097L422.418 176.995L422.354 175.914L422.24 174.841L422.091 173.782L421.899 172.737L421.671 171.706L421.394 170.689L421.088 169.694L420.74 168.713L420.349 167.746L419.929 166.8L419.474 165.876L418.984 164.973L418.458 164.092L417.903 163.231L417.313 162.392L416.688 161.582L416.041 160.793L415.358 160.032L414.654 159.3L413.915 158.589L413.154 157.906L412.372 157.259L411.555 156.641L410.723 156.051L409.863 155.496L408.974 154.97L408.071 154.48L407.147 154.025L406.201 153.598L405.241 153.214L404.26 152.866L403.258 152.553L402.248 152.283L401.217 152.048L400.172 151.856L399.113 151.707L398.04 151.6L396.952 151.536L395.857 151.508L394.762 151.536L393.682 151.6Z" fill="white"/>
<path d="M102.61 218.933C100.598 222.161 99.3892 225.794 99.3892 228.609C99.7873 235.868 105.837 245.949 116.324 245.949H116.722C124.386 245.544 130.429 243.127 134.062 238.69C136.884 235.47 138.093 231.033 138.093 227.002C139.728 227.351 147.925 229.1 162.684 232.242L165.101 215.713L82.8599 198.373L80.8408 214.504C93.9079 217.163 101.159 218.642 102.61 218.933Z" fill="white"/>
<path d="M102.61 218.933C100.598 222.161 99.3892 225.794 99.3892 228.609C99.7873 235.868 105.837 245.949 116.324 245.949H116.722C124.386 245.544 130.429 243.127 134.062 238.69C136.884 235.47 138.093 231.033 138.093 227.002C139.728 227.351 147.925 229.1 162.684 232.242L165.101 215.713L82.8599 198.373L80.8408 214.504C93.9079 217.163 101.159 218.642 102.61 218.933Z" fill="white"/>
<path d="M211.867 211.277L214.291 227.806C229.043 224.663 237.24 222.915 238.882 222.566C240.091 229.825 242.913 235.47 247.755 238.69C251.381 241.107 255.817 242.323 259.848 241.513C264.284 241.107 277.991 237.482 275.972 219.744C275.972 218.13 275.169 216.516 274.358 214.902C275.837 214.582 283.231 212.969 296.532 210.068L294.115 193.944L211.867 211.277Z" fill="white"/>
<path d="M211.867 211.277L214.291 227.806C229.043 224.663 237.24 222.915 238.882 222.566C240.091 229.825 242.913 235.47 247.755 238.69C251.381 241.107 255.817 242.323 259.848 241.513C264.284 241.107 277.991 237.482 275.972 219.744C275.972 218.13 275.169 216.516 274.358 214.902C275.837 214.582 283.231 212.969 296.532 210.068L294.115 193.944L211.867 211.277Z" fill="white"/>
<path d="M21.5771 419.46V124.343L342.9 117.888L355.796 416.638L21.5771 419.46ZM48.1875 265.45L330.807 261.817L320.32 176.348L53.4272 185.221L48.1875 265.45Z" fill="white"/>
<path d="M21.5771 419.46V124.343L342.9 117.888L355.796 416.638L21.5771 419.46ZM48.1875 265.45L330.807 261.817L320.32 176.348L53.4272 185.221L48.1875 265.45Z" fill="white"/>
</svg>
